<svg width="150" height="150" viewBox="0 0 150 150" fill="none" xmlns="http://www.w3.org/2000/svg">
<g clip-path="url(#clip0_51499_5568)">
<path d="M165 -15H-15V165H165V-15Z" fill="#FDC04E"/>
<path d="M165 -15H-15V165H165V-15Z" fill="white"/>
<path d="M165 -15H-15V165H165V-15Z" fill="#FDC04E"/>
<path d="M63.2859 73.308C66.3688 70.2251 67.4328 65.7986 66.3125 61.8205L57.5141 70.6736L49.2203 62.3798L58.075 53.5267C54.0953 52.4611 49.725 53.4705 46.586 56.5517C43.336 59.8017 42.3828 64.5095 43.7281 68.6001L24.2828 88.047C22.4328 89.8955 22.4328 92.8658 24.2828 94.7158L25.1234 95.5564C26.9719 97.4048 29.9422 97.4048 31.7922 95.5564L51.2375 76.1658C55.3281 77.5111 60.0359 76.558 63.2859 73.308ZM26.7484 93.1455C25.7391 92.1376 25.7391 90.5126 26.7484 89.5033C27.7563 88.4955 29.3813 88.4955 30.3906 89.5033C31.4 90.5126 31.4 92.1376 30.3906 93.1455C29.3813 94.1548 27.7563 94.1548 26.7484 93.1455Z" fill="#FDFDFD"/>
<path d="M61.6548 78.6377C62.058 78.6377 62.4423 78.6721 62.8048 78.7377L63.0673 78.7814L62.6548 83.1564C62.2705 83.0611 61.7439 83.0127 61.0736 83.0127C60.0642 83.0127 59.3314 83.2439 58.8736 83.7064C58.4142 84.1689 58.1861 84.8361 58.1861 85.7064V92.3064H53.5486V78.8752H56.9986L57.7236 81.0252H57.9486C58.3361 80.3127 58.8736 79.7377 59.5611 79.3002C60.2517 78.8596 60.9501 78.6377 61.6548 78.6377Z" fill="#FDFDFD"/>
<path d="M71.4194 92.5439C69.185 92.5439 67.4506 91.9502 66.2131 90.7627C64.9756 89.5721 64.3569 87.8783 64.3569 85.6814C64.3569 83.4158 64.9287 81.6752 66.0756 80.4627C67.2209 79.2471 68.8569 78.6377 70.9819 78.6377C73.0069 78.6377 74.5694 79.1674 75.6694 80.2252C76.7725 81.2799 77.3256 82.7986 77.3256 84.7814V86.8439H69.0381C69.0709 87.5939 69.3459 88.1846 69.8631 88.6127C70.3787 89.0377 71.085 89.2502 71.9819 89.2502C72.7944 89.2502 73.5412 89.1736 74.2256 89.0189C74.9084 88.8658 75.6506 88.6033 76.4506 88.2314V91.5627C75.7209 91.9346 74.9694 92.1908 74.1944 92.3314C73.4194 92.4721 72.4944 92.5439 71.4194 92.5439ZM71.1506 81.7939C70.6037 81.7939 70.1475 81.9674 69.7819 82.3127C69.4147 82.6549 69.1975 83.1924 69.1319 83.9252H73.1194C73.1022 83.2799 72.9162 82.7627 72.5631 82.3752C72.2131 81.9877 71.7412 81.7939 71.1506 81.7939Z" fill="#FDFDFD"/>
<path d="M83.4613 92.3067L78.3425 78.8755H83.18L85.455 86.8192C85.4628 86.8567 85.4769 86.9239 85.4988 87.0192C85.5238 87.1161 85.5488 87.2302 85.5738 87.363C85.5988 87.4927 85.6191 87.6302 85.6363 87.7755C85.6566 87.9224 85.6675 88.0567 85.6675 88.1817H85.7488C85.7488 87.7692 85.8191 87.3239 85.9613 86.8442L88.3488 78.8755H93.1738L88.0488 92.3067H83.4613Z" fill="#FDFDFD"/>
<path d="M104.332 92.3067L103.757 90.638H103.482C103.094 91.2552 102.554 91.7286 101.863 92.0567C101.171 92.3817 100.358 92.5442 99.4254 92.5442C97.9504 92.5442 96.8004 92.1161 95.9754 91.2567C95.1535 90.3989 94.7441 89.188 94.7441 87.6255V78.8755H99.3816V86.213C99.3816 87.0927 99.5035 87.7567 99.7504 88.2067C100 88.6567 100.41 88.8817 100.982 88.8817C101.777 88.8817 102.344 88.5677 102.682 87.938C103.022 87.3099 103.194 86.2489 103.194 84.7567V78.8755H107.832V92.3067H104.332Z" fill="#FDFDFD"/>
<path d="M119.092 92.5439C118.413 92.5439 117.805 92.4314 117.267 92.2064C116.73 91.9814 116.195 91.5752 115.667 90.9877H115.449C115.594 91.9299 115.667 92.5143 115.667 92.7439V98.1377H111.03V78.8752H114.799L115.449 80.5814H115.667C116.525 79.2861 117.713 78.6377 119.23 78.6377C120.717 78.6377 121.883 79.2549 122.73 80.4877C123.575 81.7221 123.999 83.4127 123.999 85.5627C123.999 87.7299 123.556 89.4361 122.674 90.6814C121.794 91.9236 120.6 92.5439 119.092 92.5439ZM117.536 82.2814C116.856 82.2814 116.38 82.5252 116.105 83.0127C115.833 83.4971 115.688 84.2158 115.667 85.1689V85.5377C115.667 86.6924 115.819 87.5283 116.124 88.0439C116.431 88.5564 116.919 88.8127 117.586 88.8127C118.177 88.8127 118.606 88.5596 118.874 88.0502C119.144 87.5377 119.28 86.6924 119.28 85.5127C119.28 84.3596 119.144 83.5314 118.874 83.0314C118.606 82.5314 118.161 82.2814 117.536 82.2814Z" fill="#FDFDFD"/>
</g>
<defs>
<clipPath id="clip0_51499_5568">
<rect width="150" height="150" fill="white"/>
</clipPath>
</defs>
</svg>
