<?xml version="1.0" encoding="UTF-8"?>
<svg width="752pt" height="752pt" version="1.1" viewBox="0 0 752 752" xmlns="http://www.w3.org/2000/svg">
 <g>
  <path d="m351.02 178.7c16.824 0.027344 31.703 11.047 37.02 27.574 0.76953 2.4961 3.1055 4.1641 5.7031 4.1641h29.879c4.4414 0 7.75 3.2891 7.75 7.5664v31.297c0 4.2773-3.3086 7.6211-7.75 7.6211h-145.2c-4.4414 0-7.7305-3.3398-7.7305-7.6211v-31.297c0-4.2734 3.2891-7.5664 7.7305-7.5664h29.867c2.6094 0 4.9375-1.668 5.7031-4.1641 5.3164-16.523 20.227-27.574 37.027-27.574zm0-11.941c-20.285 0.027344-37.359 13.156-45.449 31.703h-78.074c-16.773 0-31.078 12.523-31.078 28.594v329.77c0 16.086 14.309 28.59 31.078 28.59h247.07c16.801 0 31.078-12.496 31.078-28.59v-27.02c0.37891-8.3086-12.281-8.3086-11.922 0v27.02c0 8.9648-8.1094 16.664-19.16 16.664h-247.06c-11.02 0-19.16-7.6992-19.16-16.664v-329.77c0-8.9648 8.1406-16.617 19.16-16.617h32.805c-0.98828 2.332-1.5312 4.8828-1.5312 7.5664v31.297c0 10.777 8.8828 19.547 19.648 19.547h145.2c10.77 0 19.699-8.7734 19.699-19.547v-31.297c0-2.6797-0.54688-5.2344-1.5625-7.5664h32.805c11.051 0 19.16 7.6523 19.16 16.617v49.324c-0.35938 8.3281 12.301 8.3281 11.922 0v-49.324c0-16.07-14.277-28.594-31.078-28.594h-78.105c-8.0859-18.551-25.16-31.68-45.438-31.703z" fill-rule="evenodd"/>
  <path d="m351.02 207.29c6.082 0 11.07 5.0156 11.07 11.566 0 6.5469-4.9844 11.535-11.07 11.535-6.0898 0-11.02-4.9883-11.02-11.535 0.003906-6.5508 4.9375-11.566 11.02-11.566zm0-11.922c-12.723 0-22.969 10.684-22.969 23.488 0 12.824 10.246 23.453 22.969 23.453 12.715 0 22.988-10.629 22.988-23.453 0.003906-12.801-10.273-23.488-22.988-23.488z" fill-rule="evenodd"/>
  <path d="m444.52 364.51c10.934 0 19.926 9.2383 19.957 21.105 0 7.0703-3.3711 13.676-8.8594 17.539-1.9727 1.3945-2.8984 3.8633-2.3828 6.2188l7.625 32.449h-32.703l7.625-32.449c0.54688-2.3555-0.41016-4.8242-2.3828-6.2188-5.4883-3.8672-8.8281-10.473-8.8594-17.539 0.03125-11.863 9.0234-21.105 19.98-21.105zm0-11.918c-17.695 0-31.902 14.992-31.902 33.051 0 8.7969 5.3242 15.949 11.266 22.117l-7.5664 32.418c-1.6172 6.9102 3.3203 13.598 10.555 13.598h35.27c7.2656 0 12.172-6.6875 10.578-13.598l-7.582-32.418c5.9414-6.168 11.266-13.316 11.266-22.117 0-18.059-14.203-33.051-31.883-33.051z" fill-rule="evenodd"/>
  <path d="m444.52 299.54 99.27 34.504v35.457c0 77.594-39.164 123.3-99.27 155.95-60.098-32.648-99.258-78.387-99.258-155.95v-35.457zm-1.9414-11.957-105.24 36.586c-2.3828 0.82031-4 3.0977-4 5.6211v39.707c0 83.047 44.254 134.38 108.42 168.33 1.7266 0.92969 3.8164 0.92969 5.5625 0 64.133-33.949 108.4-85.285 108.4-168.33v-39.707c0-2.5195-1.5938-4.8008-4-5.6211l-105.22-36.586c-1.457-0.51953-2.7695-0.41016-3.9219 0z"/>
  <path d="m243.47 323.81c-8.2812 0-8.2812 11.922 0 11.922h63.445c8.2734 0 8.2734-11.922 0-11.922z"/>
  <path d="m242.87 359.75c-7.9453 0.10547-7.3672 11.918 0.60547 11.918h63.445c8.2734 0 8.2734-12.004 0-11.918-21.328 0.21484-42.754-0.27344-64.051 0z"/>
  <path d="m243.47 395.62c-8.2812 0-8.2812 11.949 0 11.949h63.445c8.2734 0 8.2734-11.949 0-11.949z"/>
  <path d="m242.87 431.58c-7.9453 0.089844-7.3672 11.922 0.60547 11.922h63.445c8.2734 0 8.2734-12.035 0-11.922-21.328 0.22266-42.754-0.30469-64.051 0z"/>
  <path d="m243.47 467.45c-7.9766 0-7.9766 11.977 0 11.977h89.559c7.9766 0 7.9766-11.977 0-11.977h-89.559z"/>
  <path d="m243.47 503.38c-8.2812 0-8.2812 11.922 0 11.922h107.23c8.2812 0 8.2812-11.922 0-11.922h-107.23z"/>
 </g>
</svg>
