<svg width="332" height="402" viewBox="0 0 332 402" fill="none" xmlns="http://www.w3.org/2000/svg">
<path fill-rule="evenodd" clip-rule="evenodd" d="M188.2 265.219C223.915 256.212 250 227.779 250 194.096C250 153.174 211.496 120 164 120C116.504 120 78 153.174 78 194.096C78 228.02 104.46 256.619 140.569 265.409L163.879 301L188.2 265.219Z" fill="#FDC04E"/>
<circle cx="71.5" cy="123.5" r="2.5" fill="#FDC04E"/>
<path d="M153 395.5C153 399.09 150.09 402 146.5 402C142.91 402 140 399.09 140 395.5C140 391.91 142.91 389 146.5 389C150.09 389 153 391.91 153 395.5Z" fill="#FDC04E"/>
<circle cx="110.5" cy="343.5" r="7.5" fill="#FDC04E"/>
<circle cx="212" cy="364" r="13" fill="#FDC04E"/>
<circle cx="26.5" cy="56.5" r="21.5" fill="#FDC04E"/>
<circle cx="26" cy="193" r="5" fill="#FDC04E"/>
<circle cx="321.5" cy="137.5" r="2.5" fill="#FDC04E"/>
<circle cx="120" cy="5" r="5" fill="#FDC04E"/>
<circle cx="13" cy="288" r="13" fill="#FDC04E"/>
<circle cx="53" cy="377" r="5" fill="#FDC04E"/>
<circle cx="204.5" cy="12.5" r="7.5" fill="#FDC04E"/>
<circle cx="292" cy="72" r="16" fill="#FDC04E"/>
<circle cx="286.5" cy="314.5" r="21.5" fill="#FDC04E"/>
<path d="M332 227.5C332 231.09 329.09 234 325.5 234C321.91 234 319 231.09 319 227.5C319 223.91 321.91 221 325.5 221C329.09 221 332 223.91 332 227.5Z" fill="#FDC04E"/>
<path d="M152.334 186.356C155.416 183.273 156.481 178.847 155.361 174.867L146.563 183.722L138.269 175.428L147.122 166.573C143.144 165.509 138.772 166.517 135.634 169.6C132.384 172.85 131.431 177.558 132.777 181.648L113.33 201.094C111.481 202.944 111.481 205.914 113.33 207.763L114.17 208.603C116.02 210.453 118.991 210.453 120.839 208.603L140.286 189.214C144.377 190.559 149.084 189.606 152.334 186.356ZM115.797 206.194C114.788 205.186 114.788 203.559 115.797 202.552C116.805 201.542 118.43 201.542 119.439 202.552C120.447 203.559 120.447 205.186 119.439 206.194C118.43 207.203 116.805 207.203 115.797 206.194Z" fill="black"/>
<path d="M150.611 191.478C151.014 191.478 151.398 191.512 151.761 191.578L152.023 191.622L151.611 195.997C151.226 195.901 150.7 195.853 150.029 195.853C149.02 195.853 148.287 196.084 147.829 196.547C147.37 197.009 147.142 197.676 147.142 198.547V205.147H142.504V191.716H145.954L146.679 193.866H146.904C147.292 193.153 147.829 192.578 148.517 192.141C149.208 191.7 149.906 191.478 150.611 191.478Z" fill="black"/>
<path d="M160.375 205.384C158.141 205.384 156.406 204.791 155.169 203.603C153.931 202.412 153.312 200.719 153.312 198.522C153.312 196.256 153.884 194.516 155.031 193.303C156.177 192.087 157.812 191.478 159.938 191.478C161.963 191.478 163.525 192.008 164.625 193.066C165.728 194.12 166.281 195.639 166.281 197.622V199.684H157.994C158.027 200.434 158.302 201.025 158.819 201.453C159.334 201.878 160.041 202.091 160.938 202.091C161.75 202.091 162.497 202.014 163.181 201.859C163.864 201.706 164.606 201.444 165.406 201.072V204.403C164.677 204.775 163.925 205.031 163.15 205.172C162.375 205.312 161.45 205.384 160.375 205.384ZM160.106 194.634C159.559 194.634 159.103 194.808 158.738 195.153C158.37 195.495 158.153 196.033 158.088 196.766H162.075C162.058 196.12 161.872 195.603 161.519 195.216C161.169 194.828 160.697 194.634 160.106 194.634Z" fill="black"/>
<path d="M172.416 205.147L167.298 191.716H172.135L174.41 199.659C174.418 199.697 174.432 199.764 174.454 199.859C174.479 199.956 174.504 200.07 174.529 200.203C174.554 200.333 174.574 200.47 174.591 200.616C174.612 200.762 174.623 200.897 174.623 201.022H174.704C174.704 200.609 174.774 200.164 174.916 199.684L177.304 191.716H182.129L177.004 205.147H172.416Z" fill="black"/>
<path d="M193.286 205.147L192.711 203.478H192.436C192.049 204.095 191.508 204.569 190.818 204.897C190.126 205.222 189.313 205.384 188.38 205.384C186.905 205.384 185.755 204.956 184.93 204.097C184.108 203.239 183.699 202.028 183.699 200.466V191.716H188.336V199.053C188.336 199.933 188.458 200.597 188.705 201.047C188.955 201.497 189.365 201.722 189.936 201.722C190.732 201.722 191.299 201.408 191.636 200.778C191.977 200.15 192.149 199.089 192.149 197.597V191.716H196.786V205.147H193.286Z" fill="black"/>
<path d="M208.047 205.384C207.367 205.384 206.759 205.272 206.222 205.047C205.684 204.822 205.15 204.416 204.622 203.828H204.403C204.548 204.77 204.622 205.355 204.622 205.584V210.978H199.984V191.716H203.753L204.403 193.422H204.622C205.479 192.126 206.667 191.478 208.184 191.478C209.672 191.478 210.837 192.095 211.684 193.328C212.529 194.562 212.953 196.253 212.953 198.403C212.953 200.57 212.511 202.276 211.628 203.522C210.748 204.764 209.554 205.384 208.047 205.384ZM206.49 195.122C205.811 195.122 205.334 195.366 205.059 195.853C204.787 196.337 204.642 197.056 204.622 198.009V198.378C204.622 199.533 204.773 200.369 205.078 200.884C205.386 201.397 205.873 201.653 206.54 201.653C207.131 201.653 207.561 201.4 207.828 200.891C208.098 200.378 208.234 199.533 208.234 198.353C208.234 197.2 208.098 196.372 207.828 195.872C207.561 195.372 207.115 195.122 206.49 195.122Z" fill="black"/>
</svg>
